<svg width="25" height="25" viewBox="0 0 25 25" fill="none" xmlns="http://www.w3.org/2000/svg">
<g clip-path="url(#clip0_27_51)">
<path d="M1.5625 4.41875C2.94531 3.84062 4.92812 3.21718 6.85625 3.02343C8.93437 2.81406 10.6969 3.12187 11.7188 4.19843V19.4266C10.2578 18.5984 8.40625 18.4844 6.69844 18.6562C4.85469 18.8437 2.99531 19.3766 1.5625 19.9234V4.41875ZM13.2812 4.19843C14.3031 3.12187 16.0656 2.81406 18.1438 3.02343C20.0719 3.21718 22.0547 3.84062 23.4375 4.41875V19.9234C22.0031 19.3766 20.1453 18.8422 18.3016 18.6578C16.5922 18.4844 14.7422 18.5969 13.2812 19.4266V4.19843ZM12.5 2.78593C10.9609 1.4625 8.72969 1.26562 6.69844 1.46875C4.33281 1.70781 1.94531 2.51875 0.457813 3.19531C0.321327 3.25738 0.205586 3.35742 0.124408 3.48349C0.0432292 3.60955 4.15178e-05 3.75631 0 3.90625L0 21.0937C3.61906e-05 21.2245 0.0328705 21.3531 0.0954955 21.4678C0.15812 21.5826 0.248534 21.6797 0.358454 21.7505C0.468375 21.8212 0.594288 21.8633 0.724661 21.8727C0.855034 21.8822 0.985699 21.8588 1.10469 21.8047C2.48281 21.1797 4.70312 20.4281 6.85469 20.2109C9.05625 19.9891 10.9016 20.3469 11.8906 21.5812C11.9638 21.6725 12.0566 21.7461 12.1621 21.7967C12.2675 21.8473 12.383 21.8736 12.5 21.8736C12.617 21.8736 12.7325 21.8473 12.8379 21.7967C12.9434 21.7461 13.0362 21.6725 13.1094 21.5812C14.0984 20.3469 15.9438 19.9891 18.1438 20.2109C20.2969 20.4281 22.5188 21.1797 23.8953 21.8047C24.0143 21.8588 24.145 21.8822 24.2753 21.8727C24.4057 21.8633 24.5316 21.8212 24.6415 21.7505C24.7515 21.6797 24.8419 21.5826 24.9045 21.4678C24.9671 21.3531 25 21.2245 25 21.0937V3.90625C25 3.75631 24.9568 3.60955 24.8756 3.48349C24.7944 3.35742 24.6787 3.25738 24.5422 3.19531C23.0547 2.51875 20.6672 1.70781 18.3016 1.46875C16.2703 1.26406 14.0391 1.4625 12.5 2.78593Z" fill="white"/>
</g>
<defs>
<clipPath id="clip0_27_51">
<rect width="25" height="25" rx="10" fill="white"/>
</clipPath>
</defs>
</svg>
