<svg width="50" height="60" viewBox="0 0 50 60" fill="none" xmlns="http://www.w3.org/2000/svg">
<path d="M44.6094 17.6484C46.237 16.1836 46.237 13.8047 44.6094 12.3398C42.9818 10.875 40.3385 10.875 38.7109 12.3398L25 24.6914L11.276 12.3516C9.64844 10.8867 7.00521 10.8867 5.37761 12.3516C3.75 13.8164 3.75 16.1953 5.37761 17.6602L19.1016 30L5.39063 42.3516C3.76302 43.8164 3.76302 46.1953 5.39063 47.6602C7.01823 49.125 9.66146 49.125 11.2891 47.6602L25 35.3086L38.724 47.6484C40.3516 49.1133 42.9948 49.1133 44.6224 47.6484C46.25 46.1836 46.25 43.8047 44.6224 42.3398L30.8984 30L44.6094 17.6484Z" fill="#0098D1"/>
</svg>
