<svg width="25" height="26" viewBox="0 0 25 26" fill="none" xmlns="http://www.w3.org/2000/svg">
<g clip-path="url(#clip0_37_75)">
<path d="M13.2812 8.59607V10.3148L14.7703 9.45544L15.5516 10.8101L14.0625 11.6679L15.5516 12.5273L14.7703 13.8804L13.2812 13.0211V14.7398H11.7188V13.0211L10.2297 13.8804L9.44844 12.5273L10.9375 11.6679L9.44844 10.8086L10.2297 9.45544L11.7188 10.3148V8.59607H13.2812ZM20.7031 14.7929C20.5995 14.7929 20.5002 14.8341 20.4269 14.9074C20.3537 14.9806 20.3125 15.08 20.3125 15.1836V15.9648C20.3125 16.1804 20.4875 16.3554 20.7031 16.3554H21.4844C21.588 16.3554 21.6873 16.3143 21.7606 16.241C21.8338 16.1678 21.875 16.0684 21.875 15.9648V15.1836C21.875 15.08 21.8338 14.9806 21.7606 14.9074C21.6873 14.8341 21.588 14.7929 21.4844 14.7929H20.7031ZM20.3125 18.3086C20.3125 18.205 20.3537 18.1056 20.4269 18.0324C20.5002 17.9591 20.5995 17.9179 20.7031 17.9179H21.4844C21.588 17.9179 21.6873 17.9591 21.7606 18.0324C21.8338 18.1056 21.875 18.205 21.875 18.3086V19.0898C21.875 19.1934 21.8338 19.2928 21.7606 19.366C21.6873 19.4393 21.588 19.4804 21.4844 19.4804H20.7031C20.5995 19.4804 20.5002 19.4393 20.4269 19.366C20.3537 19.2928 20.3125 19.1934 20.3125 19.0898V18.3086ZM20.7031 21.0429C20.5995 21.0429 20.5002 21.0841 20.4269 21.1574C20.3537 21.2306 20.3125 21.33 20.3125 21.4336V22.2148C20.3125 22.4304 20.4875 22.6054 20.7031 22.6054H21.4844C21.588 22.6054 21.6873 22.5643 21.7606 22.491C21.8338 22.4178 21.875 22.3184 21.875 22.2148V21.4336C21.875 21.33 21.8338 21.2306 21.7606 21.1574C21.6873 21.0841 21.588 21.0429 21.4844 21.0429H20.7031ZM3.51562 14.7929C3.41202 14.7929 3.31267 14.8341 3.23941 14.9074C3.16616 14.9806 3.125 15.08 3.125 15.1836V15.9648C3.125 16.1804 3.3 16.3554 3.51562 16.3554H4.29688C4.40048 16.3554 4.49983 16.3143 4.57309 16.241C4.64634 16.1678 4.6875 16.0684 4.6875 15.9648V15.1836C4.6875 15.08 4.64634 14.9806 4.57309 14.9074C4.49983 14.8341 4.40048 14.7929 4.29688 14.7929H3.51562ZM3.51562 17.9179C3.41202 17.9179 3.31267 17.9591 3.23941 18.0324C3.16616 18.1056 3.125 18.205 3.125 18.3086V19.0898C3.125 19.3054 3.3 19.4804 3.51562 19.4804H4.29688C4.40048 19.4804 4.49983 19.4393 4.57309 19.366C4.64634 19.2928 4.6875 19.1934 4.6875 19.0898V18.3086C4.6875 18.205 4.64634 18.1056 4.57309 18.0324C4.49983 17.9591 4.40048 17.9179 4.29688 17.9179H3.51562ZM3.125 21.4336C3.125 21.33 3.16616 21.2306 3.23941 21.1574C3.31267 21.0841 3.41202 21.0429 3.51562 21.0429H4.29688C4.40048 21.0429 4.49983 21.0841 4.57309 21.1574C4.64634 21.2306 4.6875 21.33 4.6875 21.4336V22.2148C4.6875 22.3184 4.64634 22.4178 4.57309 22.491C4.49983 22.5643 4.40048 22.6054 4.29688 22.6054H3.51562C3.41202 22.6054 3.31267 22.5643 3.23941 22.491C3.16616 22.4178 3.125 22.3184 3.125 22.2148V21.4336Z" fill="white"/>
<path d="M7.8125 2.29294C7.8125 1.87854 7.97712 1.48111 8.27015 1.18808C8.56317 0.895058 8.9606 0.730438 9.375 0.730438L15.625 0.730438C16.0394 0.730438 16.4368 0.895058 16.7299 1.18808C17.0229 1.48111 17.1875 1.87854 17.1875 2.29294V3.85544C17.6019 3.85544 17.9993 4.02006 18.2924 4.31308C18.5854 4.60611 18.75 5.00354 18.75 5.41794V11.6679H23.4375C23.8519 11.6679 24.2493 11.8326 24.5424 12.1256C24.8354 12.4186 25 12.816 25 13.2304V24.1679C25 24.5823 24.8354 24.9798 24.5424 25.2728C24.2493 25.5658 23.8519 25.7304 23.4375 25.7304H1.5625C1.1481 25.7304 0.750671 25.5658 0.457646 25.2728C0.16462 24.9798 0 24.5823 0 24.1679V13.2304C0 12.816 0.16462 12.4186 0.457646 12.1256C0.750671 11.8326 1.1481 11.6679 1.5625 11.6679H6.25V5.41794C6.25 5.00354 6.41462 4.60611 6.70765 4.31308C7.00067 4.02006 7.3981 3.85544 7.8125 3.85544V2.29294ZM10.9375 24.1679H14.0625V19.4804H10.9375V24.1679ZM15.625 24.1679H17.1875V5.41794H7.8125V24.1679H9.375V19.4804C9.375 19.066 9.53962 18.6686 9.83265 18.3756C10.1257 18.0826 10.5231 17.9179 10.9375 17.9179H14.0625C14.4769 17.9179 14.8743 18.0826 15.1674 18.3756C15.4604 18.6686 15.625 19.066 15.625 19.4804V24.1679ZM15.625 2.29294H9.375V3.85544H15.625V2.29294ZM18.75 13.2304V24.1679H23.4375V13.2304H18.75ZM6.25 24.1679V13.2304H1.5625V24.1679H6.25Z" fill="white"/>
</g>
<defs>
<clipPath id="clip0_37_75">
<rect y="0.730438" width="25" height="25" rx="10" fill="white"/>
</clipPath>
</defs>
</svg>
