<svg width="25" height="25" viewBox="0 0 25 25" fill="none" xmlns="http://www.w3.org/2000/svg">
<g clip-path="url(#clip0_37_86)">
<path d="M0 2.90436C0 1.30091 0.839844 0 1.875 0H14.375C15.4102 0 16.25 1.30091 16.25 2.90436V5.80872H18.2305C18.8945 5.80872 19.5312 6.21412 20 6.94021L23.0195 11.6174C23.4883 12.3435 23.75 13.3298 23.75 14.3584V15.4899V17.4262V21.2986C24.4414 21.2986 25 22.1639 25 23.2349C25 24.3059 24.4414 25.1711 23.75 25.1711H22.5C22.5 28.378 20.8203 30.9798 18.75 30.9798C16.6797 30.9798 15 28.378 15 25.1711H10C10 28.378 8.32031 30.9798 6.25 30.9798C4.17969 30.9798 2.5 28.378 2.5 25.1711H1.875C0.839844 25.1711 0 23.8702 0 22.2668V2.90436ZM16.25 15.4899H21.25V14.3584L18.2305 9.6812H16.25V15.4899ZM6.25 28.0755C6.74728 28.0755 7.22419 27.7695 7.57583 27.2248C7.92746 26.6801 8.125 25.9414 8.125 25.1711C8.125 24.4008 7.92746 23.6621 7.57583 23.1174C7.22419 22.5727 6.74728 22.2668 6.25 22.2668C5.75272 22.2668 5.27581 22.5727 4.92417 23.1174C4.57254 23.6621 4.375 24.4008 4.375 25.1711C4.375 25.9414 4.57254 26.6801 4.92417 27.2248C5.27581 27.7695 5.75272 28.0755 6.25 28.0755ZM20.625 25.1711C20.625 24.4008 20.4275 23.6621 20.0758 23.1174C19.7242 22.5727 19.2473 22.2668 18.75 22.2668C18.2527 22.2668 17.7758 22.5727 17.4242 23.1174C17.0725 23.6621 16.875 24.4008 16.875 25.1711C16.875 25.9414 17.0725 26.6801 17.4242 27.2248C17.7758 27.7695 18.2527 28.0755 18.75 28.0755C19.2473 28.0755 19.7242 27.7695 20.0758 27.2248C20.4275 26.6801 20.625 25.9414 20.625 25.1711ZM6.875 4.8406V7.74496H5C4.65625 7.74496 4.375 8.18061 4.375 8.71308V10.6493C4.375 11.1818 4.65625 11.6174 5 11.6174H6.875V14.5218C6.875 15.0543 7.15625 15.4899 7.5 15.4899H8.75C9.09375 15.4899 9.375 15.0543 9.375 14.5218V11.6174H11.25C11.5938 11.6174 11.875 11.1818 11.875 10.6493V8.71308C11.875 8.18061 11.5938 7.74496 11.25 7.74496H9.375V4.8406C9.375 4.30813 9.09375 3.87248 8.75 3.87248H7.5C7.15625 3.87248 6.875 4.30813 6.875 4.8406Z" fill="white"/>
</g>
<defs>
<clipPath id="clip0_37_86">
<rect width="25" height="25" fill="white"/>
</clipPath>
</defs>
</svg>
